<svg xmlns="http://www.w3.org/2000/svg" viewBox="0 0 94.42 134"><defs><style>.cls-1{fill:#fff;}.cls-2{fill:#4f46e5;}</style></defs><g id="Layer_2" data-name="Layer 2"><g id="Layer_1-2" data-name="Layer 1"><path class="cls-1" d="M0,36.59v51.2a6,6,0,0,0,1.81,4.3L43,132.3a6,6,0,0,0,8.38,0L92.61,92.09a6,6,0,0,0,1.81-4.3V36.59h0V0a10.57,10.57,0,0,1-6,1.85,10.57,10.57,0,0,1-6-1.85V30.59H12V0A10.57,10.57,0,0,1,6,1.85,10.57,10.57,0,0,1,0,0V36.59ZM72.59,59.14V82.67a6,6,0,0,1-12,0V59.14a6,6,0,0,1,12,0ZM33.83,82.67a6,6,0,0,1-12,0V59.14a6,6,0,0,1,12,0Z"/><path class="cls-2" d="M27.83,53.14a6,6,0,0,0-6,6V82.67a6,6,0,0,0,12,0V59.14A6,6,0,0,0,27.83,53.14Z"/><path class="cls-2" d="M60.59,59.14V82.67a6,6,0,0,0,12,0V59.14a6,6,0,0,0-12,0Z"/></g></g></svg>