<svg xmlns="http://www.w3.org/2000/svg" viewBox="0 0 115.48 122.06"><g id="Layer_2" data-name="Layer 2"><g id="Layer_1-2" data-name="Layer 1"><polygon points="57.74 88.94 57.74 88.94 57.74 122.06 114.66 81.65 94.74 81.65 57.74 88.94" style="fill:#bababa"/><polygon points="20.74 81.65 0.82 81.65 57.74 122.06 57.74 88.94 20.74 81.65" style="fill:#fff"/><polygon points="57.74 25.48 105.8 38.14 115.48 0 83.02 28.65 57.74 16.59 57.74 25.48 57.74 25.48" style="fill:#bababa"/><path d="M57.74,88.94l37-7.29h0l11-43.51h0L57.74,25.48ZM83.13,48.13V71.66a6,6,0,0,1-12,0V48.13a6,6,0,1,1,12,0Z" style="fill:#3e3eb5"/><polygon points="57.74 25.48 57.74 16.59 32.46 28.65 0 0 9.68 38.14 9.68 38.14 9.68 38.14 57.74 25.48" style="fill:#fff"/><path d="M57.74,88.94V25.48h0L9.68,38.14h0L20.73,81.65h0l37,7.29ZM44.35,48.13V71.66a6,6,0,0,1-12,0V48.13a6,6,0,0,1,12,0Z" style="fill:#4f46e5"/><path d="M71.13,48.13V71.66a6,6,0,0,0,12,0V48.13a6,6,0,1,0-12,0Z" style="fill:#fff"/><path d="M32.35,48.13V71.66a6,6,0,0,0,12,0V48.13a6,6,0,0,0-12,0Z" style="fill:#fff"/></g></g></svg>
